<svg xmlns="http://www.w3.org/2000/svg" xmlns:xlink="http://www.w3.org/1999/xlink" contentStyleType="text/css" height="404px" preserveAspectRatio="none" style="width:878px;height:404px;background:#FFFFFF;" version="1.1" viewBox="0 0 878 404" width="878px" zoomAndPan="magnify"><defs/><g><rect fill="#F1F1F1" height="40" rx="12.5" ry="12.5" style="stroke:#181818;stroke-width:0.5;" width="122" x="247.5" y="7"/><text fill="#000000" font-family="sans-serif" font-size="14" lengthAdjust="spacing" textLength="112" x="252.5" y="31.8467">CanBeSoldState</text><rect fill="#F1F1F1" height="40" rx="12.5" ry="12.5" style="stroke:#181818;stroke-width:0.5;" width="93" x="7" y="124"/><text fill="#000000" font-family="sans-serif" font-size="14" lengthAdjust="spacing" textLength="83" x="12" y="148.8467">PickUpState</text><rect fill="#F1F1F1" height="40" rx="12.5" ry="12.5" style="stroke:#181818;stroke-width:0.5;" width="89" x="264" y="241"/><text fill="#000000" font-family="sans-serif" font-size="14" lengthAdjust="spacing" textLength="79" x="269" y="265.8467">EmptyState</text><ellipse cx="862.5" cy="144" fill="#222222" rx="10" ry="10" style="stroke:#222222;stroke-width:1.0;"/><rect fill="#F1F1F1" height="40" rx="12.5" ry="12.5" style="stroke:#181818;stroke-width:0.5;" width="96" x="8.5" y="358"/><text fill="#000000" font-family="sans-serif" font-size="14" lengthAdjust="spacing" textLength="86" x="13.5" y="382.8467">ServiceState</text><!--link CanBeSoldState to PickUpState--><g id="link_CanBeSoldState_PickUpState"><path d="M247.27,30.89 C179.02,35.55 75,47.41 50.5,77 C39.89,89.81 40.6438,103.5018 44.6938,117.9818 " fill="none" id="CanBeSoldState-to-PickUpState" style="stroke:#181818;stroke-width:1.0;"/><polygon fill="#181818" points="46.31,123.76,47.7379,114.0152,44.9632,118.9448,40.0336,116.1701,46.31,123.76" style="stroke:#181818;stroke-width:1.0;"/><text fill="#000000" font-family="sans-serif" font-size="13" lengthAdjust="spacing" textLength="230" x="51.5" y="90.0669">purchased_online() [Available bikes]</text></g><!--link CanBeSoldState to EmptyState--><g id="link_CanBeSoldState_EmptyState"><path d="M308.5,47.38 C308.5,91.05 308.5,190.74 308.5,234.51 " fill="none" id="CanBeSoldState-to-EmptyState" style="stroke:#181818;stroke-width:1.0;"/><polygon fill="#181818" points="308.5,240.51,312.5,231.51,308.5,235.51,304.5,231.51,308.5,240.51" style="stroke:#181818;stroke-width:1.0;"/><text fill="#000000" font-family="sans-serif" font-size="13" lengthAdjust="spacing" textLength="243" x="309.5" y="148.5669">purchased_in_store() [Available bikes]</text></g><!--link EmptyState to CanBeSoldState--><g id="link_EmptyState_CanBeSoldState"><path d="M353.49,254.25 C440.12,241.24 616.87,204.24 561.5,124 C518.67,61.94 436.0506,40.7281 375.9306,32.9681 " fill="none" id="EmptyState-to-CanBeSoldState" style="stroke:#181818;stroke-width:1.0;"/><polygon fill="#181818" points="369.98,32.2,378.3939,37.3192,374.9389,32.8401,379.418,29.385,369.98,32.2" style="stroke:#181818;stroke-width:1.0;"/><text fill="#000000" font-family="sans-serif" font-size="13" lengthAdjust="spacing" textLength="192" x="572.5" y="148.5669">delivery()  [ Total bikes &lt; 100]</text></g><!--link *start* to EmptyState--><g id="link_*start*_EmptyState"><path d="M854.21,149.91 C846.87,154.1 835.74,160.05 825.5,164 C749.95,193.1 728.82,194.77 649.5,211 C544.32,232.52 424.9531,247.2855 359.4431,254.5855 " fill="none" id="*start*-to-EmptyState" style="stroke:#181818;stroke-width:1.0;"/><polygon fill="#181818" points="353.48,255.25,362.8676,258.2287,358.4492,254.6963,361.9816,250.2779,353.48,255.25" style="stroke:#181818;stroke-width:1.0;"/><text fill="#000000" font-family="sans-serif" font-size="13" lengthAdjust="spacing" textLength="125" x="730.5" y="207.0669">[ Total bikes &lt; 100]</text></g><!--link EmptyState to ServiceState--><g id="link_EmptyState_ServiceState"><path d="M266.04,281.38 C219.61,302.57 151.0985,333.829 104.5985,355.049 " fill="none" id="EmptyState-to-ServiceState" style="stroke:#181818;stroke-width:1.0;"/><polygon fill="#181818" points="99.14,357.54,108.9884,357.4426,103.6887,355.4642,105.6671,350.1646,99.14,357.54" style="stroke:#181818;stroke-width:1.0;"/><text fill="#000000" font-family="sans-serif" font-size="13" lengthAdjust="spacing" textLength="191" x="199.5" y="324.0669">drop_off() [ Total bikes &lt; 100]</text></g><!--link PickUpState to EmptyState--><g id="link_PickUpState_EmptyState"><path d="M57.05,164.37 C60.81,179.32 68.25,199.36 82.5,211 C109.78,233.29 199.9145,247.3208 257.6545,254.3908 " fill="none" id="PickUpState-to-EmptyState" style="stroke:#181818;stroke-width:1.0;"/><polygon fill="#181818" points="263.61,255.12,255.1629,250.0558,258.6471,254.5123,254.1906,257.9965,263.61,255.12" style="stroke:#181818;stroke-width:1.0;"/><text fill="#000000" font-family="sans-serif" font-size="13" lengthAdjust="spacing" textLength="198" x="83.5" y="207.0669">pick_up() [Email == bikeEmail]</text></g><!--link ServiceState to PickUpState--><g id="link_ServiceState_PickUpState"><path d="M56.25,357.51 C55.68,313.74 54.3983,214.0495 53.8283,170.3795 " fill="none" id="ServiceState-to-PickUpState" style="stroke:#181818;stroke-width:1.0;"/><polygon fill="#181818" points="53.75,164.38,49.8678,173.4314,53.8153,169.3796,57.8671,173.327,53.75,164.38" style="stroke:#181818;stroke-width:1.0;"/><text fill="#000000" font-family="sans-serif" font-size="13" lengthAdjust="spacing" textLength="101" x="56.5" y="265.5669">run()[days==2]</text></g><!--link ServiceState to ServiceState--><g id="link_ServiceState_ServiceState"><path d="M104.68,367.09 C123.65,366.54 139.5,370.17 139.5,378 C139.5,385.83 129.6475,389.6339 110.6775,389.0839 " fill="none" id="ServiceState-to-ServiceState" style="stroke:#181818;stroke-width:1.0;"/><polygon fill="#181818" points="104.68,388.91,113.5603,393.1691,109.6779,389.0549,113.7921,385.1725,104.68,388.91" style="stroke:#181818;stroke-width:1.0;"/><text fill="#000000" font-family="sans-serif" font-size="13" lengthAdjust="spacing" textLength="151" x="145.5" y="382.5669">run()[days!=2]/days++</text></g><!--SRC=[ZP5HQy8m58NVyolktdGYkZsELTZ4zq6tfr9ARAvuCIOXIGlzzqjIXxLLM9wIavoFSq-E913mR7m70brjoNZIYZdFFSAMgq_CjHHvEZB68AoH2ilb1hweFlsONdW3qzZwo1sAIYj92cTpA3vQJfBl9SAUJkZAXwXT33CbaQgSr_O1wn9uu4tyuhcSCWlurfxBtWllyB9Uzsa6hw8fHzjIZNysORMfzE4G0_o3a12Z-G849RLekm2vJs6NIOQ5zhKFbMbFuR9gJCosEuTo8CiIDnskr9kH0ZM1RyJfPzf6pUQ5u9tBijVolcDKrTNo52ohk5aiVW40]--></g></svg>